<svg preserveAspectRatio="none" width="100%" height="100%" overflow="visible" style="display: block;" viewBox="0 0 13.25 13.25" fill="none" xmlns="http://www.w3.org/2000/svg">
<g id="Left icon wrapper">
<path id="Left icon" d="M11.292 0C12.3733 0.000175714 13.2498 0.876708 13.25 1.95801V11.292C13.2498 12.3733 12.3733 13.2498 11.292 13.25H1.95801C0.876708 13.2498 0.000175714 12.3733 0 11.292V1.95801C0.000175907 0.876708 0.876708 0.000175907 1.95801 0H11.292ZM1.95801 1.25C1.56706 1.25018 1.25018 1.56706 1.25 1.95801V11.292C1.25018 11.6829 1.56706 11.9998 1.95801 12H11.292C11.6829 11.9998 11.9998 11.6829 12 11.292V1.95801C11.9998 1.56706 11.6829 1.25018 11.292 1.25H10.583V5.95801C10.583 6.2108 10.4308 6.43939 10.1973 6.53613C9.9638 6.63268 9.69429 6.57905 9.51562 6.40039L7.95801 4.84277L6.40039 6.40039C6.22166 6.57899 5.95221 6.63281 5.71875 6.53613C5.48536 6.43933 5.33301 6.2107 5.33301 5.95801V1.25H1.95801ZM6.58301 4.44922L7.51562 3.5166L7.61426 3.43652C7.85679 3.27639 8.18682 3.30318 8.40039 3.5166L9.33301 4.44922V1.25H6.58301V4.44922Z" fill="var(--fill-0, #020617)"/>
</g>
</svg>
