<svg preserveAspectRatio="none" width="100%" height="100%" overflow="visible" style="display: block;" viewBox="0 0 14.75 14.75" fill="none" xmlns="http://www.w3.org/2000/svg">
<path id="Pixel override hack" d="M2 9.91699C2.41421 9.91699 2.75 10.2528 2.75 10.667V12.667C2.75009 12.8215 2.81168 12.9698 2.9209 13.0791C3.0302 13.1883 3.17849 13.2499 3.33301 13.25H5.33301C5.74711 13.25 6.08283 13.5859 6.08301 14C6.08283 14.4141 5.74711 14.75 5.33301 14.75H3.33301C2.78067 14.7499 2.25096 14.5302 1.86035 14.1396C1.46983 13.749 1.25009 13.2193 1.25 12.667V10.667C1.25 10.2528 1.58579 9.91699 2 9.91699ZM14 9.91699C14.4141 9.91717 14.75 10.2529 14.75 10.667V12.667C14.7499 13.2194 14.5303 13.749 14.1396 14.1396C13.749 14.5303 13.2194 14.7499 12.667 14.75H10.667C10.2529 14.75 9.91717 14.4141 9.91699 14C9.91717 13.5859 10.2529 13.25 10.667 13.25H12.667C12.8216 13.2499 12.9698 13.1884 13.0791 13.0791C13.1884 12.9698 13.2499 12.8216 13.25 12.667V10.667C13.25 10.2529 13.5859 9.91717 14 9.91699ZM5.33301 1.25C5.74722 1.25 6.08301 1.58579 6.08301 2C6.08301 2.41421 5.74722 2.75 5.33301 2.75H3.33301C3.17842 2.75009 3.03022 2.81158 2.9209 2.9209C2.81158 3.03022 2.75009 3.17842 2.75 3.33301V5.33301C2.75 5.74722 2.41421 6.08301 2 6.08301C1.58579 6.08301 1.25 5.74722 1.25 5.33301V3.33301C1.25009 2.78059 1.46973 2.25098 1.86035 1.86035C2.25098 1.46973 2.78059 1.25009 3.33301 1.25H5.33301ZM12.667 1.25C13.2193 1.25009 13.749 1.46983 14.1396 1.86035C14.5302 2.25096 14.7499 2.78067 14.75 3.33301V5.33301C14.75 5.74711 14.4141 6.08283 14 6.08301C13.5859 6.08283 13.25 5.74711 13.25 5.33301V3.33301C13.2499 3.17849 13.1883 3.0302 13.0791 2.9209C12.9698 2.81168 12.8215 2.75009 12.667 2.75H10.667C10.2528 2.75 9.91699 2.41421 9.91699 2C9.91699 1.58579 10.2528 1.25 10.667 1.25H12.667ZM0.00976562 0.00976562H0V0H0.00976562V0.00976562Z" fill="var(--fill-0, #020617)"/>
</svg>
