<svg preserveAspectRatio="none" width="100%" height="100%" overflow="visible" style="display: block;" viewBox="0 0 14.0776 15.4171" fill="none" xmlns="http://www.w3.org/2000/svg">
<path id="Pixel override hack" d="M8.00488 3.25098C8.98749 3.25268 9.9554 3.49199 10.8252 3.94922C11.696 4.40706 12.4433 5.0691 13.002 5.87891C13.5606 6.68881 13.9144 7.6229 14.0332 8.59961C14.1519 9.57623 14.0319 10.5672 13.6836 11.4873C13.3352 12.4075 12.769 13.2296 12.0332 13.8828C11.2974 14.536 10.414 15.0014 9.45898 15.2383C8.50409 15.4751 7.50548 15.4768 6.5498 15.2432C5.59412 15.0095 4.70864 14.5472 3.9707 13.8965L3.96875 13.8945L3.41699 13.4033V14.666C3.41699 15.0801 3.08106 15.4158 2.66699 15.416C2.25278 15.416 1.91699 15.0802 1.91699 14.666V11.333C1.91717 10.9189 2.25289 10.583 2.66699 10.583H6C6.41396 10.5832 6.74982 10.9191 6.75 11.333C6.75 11.7471 6.41406 12.0828 6 12.083H4.18945L4.96484 12.7725H4.96387C5.51961 13.2622 6.18671 13.6102 6.90625 13.7861C7.62612 13.962 8.37838 13.9606 9.09766 13.7822C9.81714 13.6038 10.4827 13.2529 11.0371 12.7607C11.5915 12.2686 12.0188 11.6494 12.2812 10.9561C12.5436 10.2628 12.6343 9.51606 12.5449 8.78027C12.4554 8.04442 12.1885 7.34065 11.7676 6.73047C11.3466 6.12035 10.783 5.62131 10.127 5.27637C9.47103 4.93164 8.74099 4.75092 8 4.75H7.99414C6.87183 4.74128 5.78513 5.14478 4.94043 5.88379C4.09561 6.623 3.55142 7.64698 3.41113 8.76074C3.35924 9.17144 2.98398 9.46268 2.57324 9.41113C2.16236 9.35938 1.87124 8.98411 1.92285 8.57324C2.10904 7.09503 2.83092 5.73601 3.95215 4.75488C5.07188 3.77516 6.51234 3.24083 8 3.25098L8.00098 3.25L8.00195 3.25098C8.00315 3.25085 8.00466 3.24999 8.00586 3.25L8.00488 3.25098ZM8 5.91699C8.41421 5.91699 8.75 6.25278 8.75 6.66699V9.33398L8.74609 9.41016C8.70762 9.78828 8.38828 10.084 8 10.084C7.61172 10.084 7.29238 9.78828 7.25391 9.41016L7.25 9.33398V6.66699C7.25 6.25278 7.58579 5.91699 8 5.91699ZM9.41016 0.586914C9.78819 0.625361 10.0838 0.944867 10.084 1.33301C10.084 1.72127 9.78826 2.04061 9.41016 2.0791L9.33398 2.08301H6.66699C6.25278 2.08301 5.91699 1.74722 5.91699 1.33301C5.91717 0.918944 6.25289 0.583008 6.66699 0.583008H9.33398L9.41016 0.586914ZM0.00976562 0.00976562H0V0H0.00976562V0.00976562Z" fill="var(--fill-0, #020617)"/>
</svg>
