<svg preserveAspectRatio="none" width="100%" height="100%" overflow="visible" style="display: block;" viewBox="0 0 14.75 11.417" fill="none" xmlns="http://www.w3.org/2000/svg">
<path id="Pixel override hack" d="M12.334 5.91699C12.9747 5.91716 13.5899 6.17194 14.043 6.625C14.4958 7.07815 14.75 7.69335 14.75 8.33398V10.667C14.7498 11.0809 14.414 11.4168 14 11.417C13.586 11.4168 13.2502 11.0809 13.25 10.667V10.083H11.417V10.667C11.4168 11.0809 11.0809 11.4168 10.667 11.417C10.2529 11.417 9.91717 11.0811 9.91699 10.667V8.33398C9.91699 7.69304 10.1718 7.07821 10.625 6.625C11.0782 6.17179 11.693 5.91699 12.334 5.91699ZM5 3.91699C5.28408 3.91699 5.54385 4.07794 5.6709 4.33203L8.6709 10.332C8.85564 10.7024 8.70523 11.1528 8.33496 11.3379C7.96466 11.5227 7.51434 11.3721 7.3291 11.002L6.53613 9.41699H3.46387L2.6709 11.002C2.48566 11.3721 2.03534 11.5227 1.66504 11.3379C1.29477 11.1528 1.14436 10.7024 1.3291 10.332L4.3291 4.33203C4.45615 4.07794 4.71592 3.91699 5 3.91699ZM12.334 7.41699C12.0909 7.41699 11.8575 7.51364 11.6855 7.68555C11.5136 7.85746 11.417 8.09087 11.417 8.33398V8.58301H13.25V8.33398C13.25 8.09102 13.1532 7.85742 12.9814 7.68555C12.8097 7.51389 12.5768 7.41716 12.334 7.41699ZM4.21387 7.91699H5.78613L5 6.34375L4.21387 7.91699ZM0.00976562 0.00976562H0V0H0.00976562V0.00976562Z" fill="var(--fill-0, #020617)"/>
</svg>
