<svg preserveAspectRatio="none" width="100%" height="100%" overflow="visible" style="display: block;" viewBox="0 0 14.583 14.583" fill="none" xmlns="http://www.w3.org/2000/svg">
<g id="Left icon wrapper">
<path id="Left icon" d="M7.29199 0C11.3188 0.000176132 14.5828 3.26517 14.583 7.29199C14.5828 11.3188 11.3188 14.5828 7.29199 14.583C3.26517 14.5828 0.000176129 11.3188 0 7.29199C0.000175945 3.26517 3.26517 0.000175949 7.29199 0ZM7.29199 1.25C3.95553 1.25018 1.25018 3.95553 1.25 7.29199C1.25018 10.6285 3.95553 13.3328 7.29199 13.333C10.6285 13.3328 13.3328 10.6285 13.333 7.29199C13.3328 3.95553 10.6285 1.25018 7.29199 1.25ZM7.29199 2.66699C7.63717 2.66699 7.91699 2.94681 7.91699 3.29199V6.66699H10.292C10.6372 6.66699 10.917 6.94681 10.917 7.29199C10.917 7.63717 10.6372 7.91699 10.292 7.91699H7.29199C6.94681 7.91699 6.66699 7.63717 6.66699 7.29199V3.29199C6.66699 2.94681 6.94681 2.66699 7.29199 2.66699Z" fill="var(--fill-0, #020617)"/>
</g>
</svg>
