<svg preserveAspectRatio="none" width="100%" height="100%" overflow="visible" style="display: block;" viewBox="0 0 15.4173 15.4173" fill="none" xmlns="http://www.w3.org/2000/svg">
<path id="Pixel override hack" d="M9.12402 13.8096C9.53057 13.731 9.9242 13.9968 10.0029 14.4033C10.0814 14.8098 9.81558 15.2034 9.40918 15.2822C8.47851 15.4623 7.5215 15.4623 6.59082 15.2822C6.18428 15.2035 5.91853 14.8099 5.99707 14.4033C6.07581 13.9967 6.46933 13.7309 6.87598 13.8096C7.61832 13.9532 8.38168 13.9532 9.12402 13.8096ZM12.8984 11.3184C13.1308 10.9758 13.5977 10.886 13.9404 11.1182C14.2832 11.3504 14.3726 11.8173 14.1406 12.1602C13.6073 12.9472 12.9267 13.6248 12.1377 14.1553C11.7941 14.3859 11.3287 14.2946 11.0977 13.9512C10.8666 13.6074 10.958 13.1412 11.3018 12.9102C11.9311 12.487 12.4731 11.9462 12.8984 11.3184ZM2.0498 11.0977C2.39355 10.8668 2.85882 10.9581 3.08984 11.3018C3.51292 11.931 4.05393 12.4731 4.68164 12.8984C5.02415 13.1309 5.11407 13.5977 4.88184 13.9404C4.64963 14.283 4.18361 14.3723 3.84082 14.1406C3.05372 13.6073 2.37615 12.9267 1.8457 12.1377C1.61473 11.7939 1.70607 11.3287 2.0498 11.0977ZM0.717773 6.59082C0.796447 6.18433 1.1902 5.91869 1.59668 5.99707C2.00335 6.07577 2.26913 6.46931 2.19043 6.87598C2.04684 7.61828 2.04681 8.38172 2.19043 9.12402C2.26897 9.5306 2.00326 9.92425 1.59668 10.0029C1.19031 10.0812 0.796549 9.8155 0.717773 9.40918C0.537684 8.47853 0.537718 7.52147 0.717773 6.59082ZM14.4033 5.99707C14.8099 5.91853 15.2035 6.18428 15.2822 6.59082C15.4623 7.5215 15.4623 8.47851 15.2822 9.40918C15.2034 9.81558 14.8098 10.0814 14.4033 10.0029C13.9968 9.9242 13.731 9.53057 13.8096 9.12402C13.9532 8.38168 13.9532 7.61832 13.8096 6.87598C13.7309 6.46933 13.9967 6.07581 14.4033 5.99707ZM11.1182 2.05957C11.3505 1.71677 11.8173 1.62723 12.1602 1.85938C12.9473 2.39276 13.6248 3.07315 14.1553 3.8623C14.3861 4.20605 14.2949 4.67231 13.9512 4.90332C13.6075 5.1341 13.1412 5.04269 12.9102 4.69922C12.487 4.06967 11.9463 3.52707 11.3184 3.10156C10.9757 2.86919 10.886 2.40238 11.1182 2.05957ZM3.8623 1.8457C4.20608 1.61463 4.67225 1.70603 4.90332 2.0498C5.1337 2.39337 5.04241 2.85883 4.69922 3.08984C4.06974 3.51299 3.52705 4.05374 3.10156 4.68164C2.8692 5.02432 2.40239 5.114 2.05957 4.88184C1.71703 4.64958 1.62759 4.1836 1.85938 3.84082C2.39276 3.05362 3.07315 2.37619 3.8623 1.8457ZM6.59082 0.717773C7.52147 0.537718 8.47853 0.537684 9.40918 0.717773C9.8155 0.796549 10.0812 1.19031 10.0029 1.59668C9.92425 2.00326 9.5306 2.26897 9.12402 2.19043C8.38172 2.04681 7.61828 2.04684 6.87598 2.19043C6.46931 2.26913 6.07577 2.00335 5.99707 1.59668C5.91869 1.1902 6.18433 0.796447 6.59082 0.717773ZM0.00976562 0.00976562H0V0H0.00976562V0.00976562Z" fill="var(--fill-0, #020617)"/>
</svg>
