<svg preserveAspectRatio="none" width="100%" height="100%" overflow="visible" style="display: block;" viewBox="0 0 17.916 17.917" fill="none" xmlns="http://www.w3.org/2000/svg">
<g id="Icon wrapper">
<path id="Pixel color override hack" d="M12.291 0C12.8988 0 13.4823 0.241128 13.9121 0.670898C14.3418 1.10065 14.583 1.68428 14.583 2.29199V5.83301H15.625C16.2326 5.83309 16.8154 6.07431 17.2451 6.50391C17.6749 6.93368 17.916 7.51721 17.916 8.125V15.625C17.9159 16.2327 17.6748 16.8154 17.2451 17.2451C16.8154 17.6748 16.2327 17.9159 15.625 17.916H13.9678C13.9645 17.9161 13.9613 17.917 13.958 17.917H3.95801C3.95474 17.917 3.95149 17.9161 3.94824 17.916H2.29199C1.68428 17.916 1.10065 17.6748 0.670898 17.2451C0.241306 16.8154 8.62354e-05 16.2326 0 15.625V10.625C0 10.0172 0.241128 9.43368 0.670898 9.00391C1.10065 8.57424 1.68428 8.33301 2.29199 8.33301H3.33301V2.29199C3.33301 1.68428 3.57424 1.10065 4.00391 0.670898C4.43368 0.241128 5.01721 0 5.625 0H12.291ZM5.625 1.25C5.34873 1.25 5.08305 1.35934 4.8877 1.55469C4.69245 1.75002 4.58301 2.0158 4.58301 2.29199V16.667H13.333V2.29199C13.333 2.0158 13.2236 1.75002 13.0283 1.55469C12.833 1.35934 12.5673 1.25 12.291 1.25H5.625ZM2.29199 9.58301C2.0158 9.58301 1.75002 9.69245 1.55469 9.8877C1.35934 10.083 1.25 10.3487 1.25 10.625V15.625C1.25009 15.9011 1.35952 16.1661 1.55469 16.3613C1.75002 16.5566 2.0158 16.666 2.29199 16.666H3.33301V9.58301H2.29199ZM14.583 16.666H15.625C15.9011 16.6659 16.1661 16.5566 16.3613 16.3613C16.5566 16.1661 16.6659 15.9011 16.666 15.625V8.125C16.666 7.84873 16.5567 7.58305 16.3613 7.3877C16.1661 7.19252 15.9011 7.08309 15.625 7.08301H14.583V16.666ZM10.624 13.333C10.9692 13.333 11.249 13.6128 11.249 13.958C11.249 14.3032 10.9692 14.583 10.624 14.583H7.29102C6.94599 14.5828 6.66602 14.3031 6.66602 13.958C6.66602 13.6129 6.94599 13.3332 7.29102 13.333H10.624ZM10.624 10C10.9692 10 11.249 10.2798 11.249 10.625C11.2488 10.97 10.9691 11.25 10.624 11.25H7.29102C6.9461 11.2498 6.66619 10.9699 6.66602 10.625C6.66602 10.2799 6.94599 10.0002 7.29102 10H10.624ZM10.624 6.66602C10.9691 6.66602 11.2488 6.94599 11.249 7.29102C11.249 7.63619 10.9692 7.91602 10.624 7.91602H7.29102C6.94599 7.91584 6.66602 7.63609 6.66602 7.29102C6.66619 6.9461 6.9461 6.66619 7.29102 6.66602H10.624ZM10.624 3.33301C10.9692 3.33301 11.249 3.61283 11.249 3.95801C11.249 4.30319 10.9692 4.58301 10.624 4.58301H7.29102C6.94599 4.58283 6.66602 4.30308 6.66602 3.95801C6.66602 3.61294 6.94599 3.33318 7.29102 3.33301H10.624Z" fill="var(--fill-0, #334155)"/>
</g>
</svg>
