<svg preserveAspectRatio="none" width="100%" height="100%" overflow="visible" style="display: block;" viewBox="0 0 16.25 16.25" fill="none" xmlns="http://www.w3.org/2000/svg">
<g id="Icon wrapper">
<path id="Pixel color override hack" d="M12.292 3.33301C12.3325 3.33301 12.3731 3.33688 12.4131 3.34473C12.4254 3.34717 12.4371 3.35231 12.4492 3.35547C12.5531 3.38245 12.6519 3.43438 12.7334 3.51562C12.8553 3.63758 12.9169 3.79794 12.917 3.95801L12.916 12.291C12.916 12.6362 12.6362 12.916 12.291 12.916C11.9461 12.9156 11.666 12.636 11.666 12.291V5.46777L4.40036 12.7334C4.15628 12.9775 3.75966 12.9775 3.51559 12.7334C3.27213 12.4894 3.27202 12.0935 3.51559 11.8496L10.7822 4.58301H3.95797C3.61296 4.58281 3.33297 4.30307 3.33297 3.95801C3.33315 3.6131 3.61307 3.3332 3.95797 3.33301H12.292Z" fill="var(--fill-0, #334155)"/>
</g>
</svg>
