<svg preserveAspectRatio="none" width="100%" height="100%" overflow="visible" style="display: block;" viewBox="0 0 14.5829 14.5826" fill="none" xmlns="http://www.w3.org/2000/svg">
<g id="Icon wrapper">
<path id="Pixel color override hack" d="M12.079 0C12.7429 8.327e-05 13.38 0.264095 13.8495 0.733398C14.319 1.20302 14.5829 1.84083 14.5829 2.50488C14.5827 3.16893 14.3191 3.80589 13.8495 4.27539L12.4393 5.68457C12.4262 5.70057 12.4152 5.71847 12.4003 5.7334C12.3854 5.74826 12.3674 5.75941 12.3514 5.77246L4.95106 13.1748C4.78077 13.3446 4.58075 13.4812 4.36219 13.5781L4.13758 13.6621L1.23524 14.542H1.23426C1.06863 14.5917 0.89221 14.5959 0.724494 14.5537C0.556914 14.5115 0.403442 14.4248 0.281135 14.3027C0.158902 14.1806 0.0715877 14.0269 0.0291815 13.8594C-0.0130251 13.692 -0.00945037 13.516 0.0399237 13.3506L0.0409002 13.3477L0.92176 10.4463V10.4443C1.0159 10.1376 1.18477 9.85839 1.41199 9.63184L8.80555 2.23535C8.8197 2.21774 8.83316 2.19895 8.84949 2.18262C8.86674 2.16538 8.88649 2.15152 8.90516 2.13672L10.3085 0.733398C10.7781 0.263953 11.415 3.77742e-05 12.079 0ZM2.29481 10.5166L2.29383 10.5176C2.21241 10.5989 2.15121 10.6987 2.11707 10.8086L1.39539 13.1865L3.7743 12.4658C3.88517 12.4321 3.98616 12.3718 4.06824 12.29L11.0702 5.28711L9.29578 3.51367L2.29481 10.5166ZM12.079 1.25C11.788 1.25003 11.5072 1.35134 11.2841 1.53418L11.1923 1.61719L10.1805 2.62891L11.954 4.40234L12.9657 3.3916C13.2008 3.15653 13.3327 2.83735 13.3329 2.50488C13.3328 2.17235 13.2008 1.85236 12.9657 1.61719C12.7306 1.38226 12.4114 1.25004 12.079 1.25Z" fill="var(--fill-0, #334155)"/>
</g>
</svg>
