<svg width="20" height="20" viewBox="0 0 20 20" fill="none" xmlns="http://www.w3.org/2000/svg">
<path fill-rule="evenodd" clip-rule="evenodd" d="M9.49406 7.1722C9.16865 7.49764 9.16864 8.02524 9.49406 8.35067C9.8195 8.6761 10.3472 8.6761 10.6726 8.35067L18.6143 0.408867C18.7991 0.224083 19.0825 0.154871 19.2958 0.305944C19.6507 0.557412 19.9029 0.944221 19.9773 1.39122C20.0063 1.56569 19.9297 1.73652 19.8046 1.86159L11.9941 9.6722C11.6686 9.99764 11.6686 10.5252 11.9941 10.8507C12.3195 11.1761 12.8472 11.1761 13.1726 10.8507L18.8619 5.16135C19.2819 4.74137 20 5.03881 20 5.63275V6.39012C20 6.56693 19.9298 6.7365 19.8047 6.86152L14.7214 11.9449C14.4611 12.2052 14.4611 12.6273 14.7214 12.8877L15.2332 13.3995C15.3582 13.5245 15.5278 13.5947 15.7046 13.5947H19.3333C19.7015 13.5947 20 13.8932 20 14.2614V16C20 16.3682 19.7015 16.6667 19.3333 16.6667H17.3333C16.9651 16.6667 16.6667 16.9651 16.6667 17.3333V19.3333C16.6667 19.7015 16.3682 20 16 20H14.6066C14.2384 20 13.9399 19.7015 13.9399 19.3333V15.7047C13.9399 15.5279 13.8697 15.3583 13.7447 15.2333L13.2329 14.7214C12.9725 14.4611 12.5504 14.4611 12.2901 14.7214L7.20674 19.8047C7.08171 19.9298 6.91214 20 6.73533 20H5.97797C5.38403 20 5.08658 19.2819 5.50656 18.8619L10.8507 13.5177C11.1761 13.1923 11.1761 12.6647 10.8507 12.3393C10.5253 12.0138 9.99764 12.0138 9.6722 12.3393L2.20674 19.8047C2.08171 19.9298 1.91214 20 1.73533 20H1.66667C1.2262 20 0.825692 19.8291 0.527737 19.55C0.309057 19.3452 0.362005 19.0064 0.573874 18.7945L8.35075 11.0177C8.67614 10.6923 8.67615 10.1647 8.35075 9.83927C8.02531 9.51384 7.49764 9.51384 7.1722 9.83927L1.13807 15.8734C0.718095 16.2934 0 15.9959 0 15.402V14.6446C0 14.4678 0.0702379 14.2983 0.195262 14.1732L5.85075 8.51774C6.17614 8.19231 6.17615 7.6647 5.85075 7.33927C5.52531 7.01384 4.99764 7.01384 4.6722 7.33927L1.13807 10.8734C0.718096 11.2934 0 10.9959 0 10.402V1.66667C0 0.746192 0.746192 2.68441e-08 1.66667 0H10.0568C10.6507 0 10.9482 0.718095 10.5282 1.13807L6.99406 4.6722C6.66865 4.99764 6.66864 5.52524 6.99406 5.85067C7.3195 6.1761 7.84717 6.1761 8.17261 5.85067L13.828 0.195262C13.953 0.0702377 14.1226 0 14.2994 0H15.0568C15.6507 0 15.9482 0.718095 15.5282 1.13807L9.49406 7.1722ZM4.16667 1.66667C3.70643 1.66667 3.33333 2.03976 3.33333 2.5C3.33333 2.96024 3.70643 3.33333 4.16667 3.33333C4.6269 3.33333 5 2.96024 5 2.5C5 2.03976 4.6269 1.66667 4.16667 1.66667Z" fill="black"/>
</svg>
