<svg preserveAspectRatio="none" width="100%" height="100%" overflow="visible" style="display: block;" viewBox="0 0 13.25 13.25" fill="none" xmlns="http://www.w3.org/2000/svg">
<g id="Icon wrapper">
<path id="Pixel color override hack" d="M1.95898 5.33301C2.67194 5.33336 3.24982 5.912 3.25 6.625C3.24982 7.338 2.67194 7.91566 1.95898 7.91602C1.24573 7.91602 0.667168 7.33822 0.666992 6.625C0.667168 5.91178 1.24573 5.33301 1.95898 5.33301ZM6.625 5.33301C7.33811 5.33318 7.91584 5.91189 7.91602 6.625C7.91584 7.33811 7.33811 7.91584 6.625 7.91602C5.91189 7.91584 5.33318 7.33811 5.33301 6.625C5.33318 5.91189 5.91189 5.33318 6.625 5.33301ZM11.292 5.33301C12.0051 5.33318 12.5828 5.91189 12.583 6.625C12.5828 7.33811 12.0051 7.91584 11.292 7.91602C10.5787 7.91602 10.0002 7.33822 10 6.625C10.0002 5.91178 10.5787 5.33301 11.292 5.33301ZM1.95898 6.58301C1.93608 6.58301 1.91717 6.60214 1.91699 6.625C1.91717 6.64786 1.93608 6.66602 1.95898 6.66602C1.98158 6.66567 1.99983 6.64764 2 6.625C1.99983 6.60235 1.98159 6.58335 1.95898 6.58301ZM6.625 6.58301C6.60224 6.58318 6.58318 6.60224 6.58301 6.625C6.58318 6.64775 6.60224 6.66584 6.625 6.66602C6.64775 6.66584 6.66584 6.64775 6.66602 6.625C6.66584 6.60224 6.64775 6.58318 6.625 6.58301ZM11.292 6.58301C11.2691 6.58301 11.2502 6.60213 11.25 6.625C11.2502 6.64786 11.2691 6.66602 11.292 6.66602C11.3147 6.66584 11.3328 6.64775 11.333 6.625C11.3328 6.60224 11.3147 6.58318 11.292 6.58301Z" fill="var(--fill-0, #64748B)"/>
</g>
</svg>
