<svg preserveAspectRatio="none" width="100%" height="100%" overflow="visible" style="display: block;" viewBox="0 0 14.75 14.75" fill="none" xmlns="http://www.w3.org/2000/svg">
<g id="Icon wrapper">
<path id="Pixel color override hack" d="M7.3961 1.50195C7.42266 1.50283 7.44891 1.50553 7.4752 1.50977C7.48866 1.51194 7.50208 1.51358 7.51524 1.5166C7.54013 1.52229 7.56431 1.5303 7.58848 1.53906C7.60161 1.54385 7.61485 1.54809 7.62755 1.55371C7.65553 1.56605 7.68231 1.58101 7.7086 1.59766C7.71402 1.6011 7.71989 1.60382 7.7252 1.60742C7.75748 1.62929 7.78841 1.65405 7.817 1.68262L13.067 6.93262C13.3111 7.17669 13.3111 7.57331 13.067 7.81738C12.8229 8.06127 12.4262 8.0614 12.1822 7.81738L7.99962 3.63477V12.625C7.99962 12.9702 7.71979 13.25 7.37462 13.25C7.02961 13.2498 6.74962 12.97 6.74962 12.625V3.63477L2.567 7.81738C2.3229 8.06127 1.92625 8.0614 1.68223 7.81738C1.43841 7.57335 1.43841 7.17665 1.68223 6.93262L6.93223 1.68262L7.03087 1.60254C7.06141 1.58239 7.09365 1.56501 7.12657 1.55078C7.13759 1.54601 7.14941 1.54321 7.16075 1.53906C7.18653 1.52966 7.21228 1.52056 7.23887 1.51465C7.24944 1.5123 7.26034 1.51157 7.2711 1.50977C7.30026 1.50486 7.3295 1.50174 7.35899 1.50098C7.36419 1.50085 7.36939 1.5 7.37462 1.5C7.38169 1.5 7.38908 1.50172 7.3961 1.50195Z" fill="var(--fill-0, #F8FAFC)"/>
</g>
</svg>
