<svg preserveAspectRatio="none" width="100%" height="100%" overflow="visible" style="display: block;" viewBox="0 0 14.75 14.084" fill="none" xmlns="http://www.w3.org/2000/svg">
<path id="Pixel override hack" d="M4.66699 1.91699C5.08106 1.91717 5.41699 2.25289 5.41699 2.66699V11.5215L6.80273 10.1367C7.09557 9.84388 7.57037 9.84399 7.86328 10.1367C8.15601 10.4296 8.15612 10.9044 7.86328 11.1973L5.19727 13.8643C5.19022 13.8713 5.18206 13.8771 5.1748 13.8838C5.17159 13.8868 5.16831 13.8897 5.16504 13.8926C5.13412 13.9202 5.1014 13.9442 5.06738 13.9658C5.04721 13.9786 5.02533 13.9881 5.00391 13.999C4.98389 14.0092 4.96501 14.0211 4.94434 14.0293C4.85844 14.0636 4.76513 14.0839 4.66699 14.084C4.56786 14.084 4.47334 14.0633 4.38672 14.0283C4.37283 14.0227 4.36028 14.0143 4.34668 14.0078C4.319 13.9946 4.29131 13.9822 4.26562 13.9658C4.23337 13.9453 4.20233 13.9224 4.17285 13.8965C4.16626 13.8907 4.1597 13.8849 4.15332 13.8789C4.14797 13.8739 4.14196 13.8695 4.13672 13.8643L1.46973 11.1973C1.17689 10.9044 1.177 10.4296 1.46973 10.1367C1.76262 9.84383 2.23738 9.84383 2.53027 10.1367L3.91699 11.5234V2.66699C3.91699 2.25278 4.25278 1.91699 4.66699 1.91699ZM10.0762 7.25391C10.4545 7.29223 10.75 7.61161 10.75 8C10.75 8.38839 10.4545 8.70777 10.0762 8.74609L10 8.75H7.33301C6.91894 8.74982 6.58301 8.4141 6.58301 8C6.58301 7.5859 6.91894 7.25018 7.33301 7.25H10L10.0762 7.25391ZM12 4.58301C12.414 4.58318 12.7498 4.91905 12.75 5.33301C12.75 5.74711 12.4141 6.08283 12 6.08301H7.33301C6.91894 6.08283 6.58301 5.74711 6.58301 5.33301C6.58318 4.91905 6.91905 4.58318 7.33301 4.58301H12ZM14 1.91699C14.4141 1.91717 14.75 2.25289 14.75 2.66699C14.7498 3.08095 14.414 3.41682 14 3.41699H7.33301C6.91905 3.41682 6.58318 3.08095 6.58301 2.66699C6.58301 2.25289 6.91894 1.91717 7.33301 1.91699H14ZM0.00976562 0.00976562H0V0H0.00976562V0.00976562Z" fill="var(--fill-0, #020617)"/>
</svg>
