<svg preserveAspectRatio="none" width="100%" height="100%" overflow="visible" style="display: block;" viewBox="0 0 14.75 14.084" fill="none" xmlns="http://www.w3.org/2000/svg">
<path id="Pixel override hack" d="M4.69238 1.91797C4.69923 1.9182 4.70605 1.91852 4.71289 1.91895C4.75261 1.92136 4.79129 1.92718 4.8291 1.93555C4.85766 1.94186 4.88528 1.95126 4.91309 1.96094C4.92927 1.96659 4.94626 1.96985 4.96191 1.97656C4.98101 1.98472 4.9981 1.99702 5.0166 2.00684C5.0404 2.01948 5.06473 2.03085 5.08691 2.0459C5.1257 2.0722 5.16291 2.10236 5.19727 2.13672L7.86328 4.80371C8.15601 5.09662 8.15612 5.57142 7.86328 5.86426C7.5704 6.15661 7.09548 6.15683 6.80273 5.86426L5.41699 4.47852V13.334L5.41309 13.4102C5.37464 13.7882 5.05513 14.0838 4.66699 14.084C4.27873 14.084 3.95939 13.7883 3.9209 13.4102L3.91699 13.334V4.47656L2.53027 5.86426C2.23746 6.15672 1.76254 6.15672 1.46973 5.86426C1.17694 5.57147 1.17716 5.09663 1.46973 4.80371L4.13672 2.13672L4.19336 2.08496C4.20238 2.0776 4.2124 2.07133 4.22168 2.06445C4.23926 2.05144 4.25766 2.03978 4.27637 2.02832C4.29895 2.01449 4.32208 2.00243 4.3457 1.99121C4.36492 1.98206 4.38423 1.97334 4.4043 1.96582C4.42809 1.95694 4.45215 1.94974 4.47656 1.94336C4.50194 1.93671 4.52736 1.92977 4.55371 1.92578C4.56186 1.92455 4.56994 1.92284 4.57812 1.92188C4.60717 1.91846 4.63703 1.91699 4.66699 1.91699C4.6755 1.917 4.68394 1.91768 4.69238 1.91797ZM14 12.583C14.414 12.5832 14.7498 12.9191 14.75 13.333C14.75 13.7471 14.4141 14.0828 14 14.083H7.33301C6.91894 14.0828 6.58301 13.7471 6.58301 13.333C6.58318 12.9191 6.91905 12.5832 7.33301 12.583H14ZM12 9.91699C12.4141 9.91717 12.75 10.2529 12.75 10.667C12.7498 11.0809 12.414 11.4168 12 11.417H7.33301C6.91905 11.4168 6.58318 11.0809 6.58301 10.667C6.58301 10.2529 6.91894 9.91717 7.33301 9.91699H12ZM10.0762 7.25391C10.4545 7.29223 10.75 7.61161 10.75 8C10.75 8.38839 10.4545 8.70777 10.0762 8.74609L10 8.75H7.33301C6.91894 8.74982 6.58301 8.4141 6.58301 8C6.58301 7.5859 6.91894 7.25018 7.33301 7.25H10L10.0762 7.25391ZM0.00976562 0.00976562H0V0H0.00976562V0.00976562Z" fill="var(--fill-0, #020617)"/>
</svg>
