<svg preserveAspectRatio="none" width="100%" height="100%" overflow="visible" style="display: block;" viewBox="0 0 16.25 16.25" fill="none" xmlns="http://www.w3.org/2000/svg">
<g id="Icon wrapper">
<path id="Pixel color override hack" d="M7.68351 1.84955C7.92756 1.60585 8.32332 1.60574 8.5673 1.84955C8.81112 2.09365 8.81129 2.49032 8.5673 2.73432L3.8007 7.49994H13.9589C14.3038 7.50025 14.5839 7.77998 14.5839 8.12494C14.5839 8.46993 14.3038 8.74963 13.9589 8.74994H3.8007L8.5673 13.5165C8.81107 13.7606 8.81113 14.1563 8.5673 14.4003C8.32331 14.6443 7.92761 14.6442 7.68351 14.4003L1.84855 8.56635C1.81962 8.53731 1.7942 8.50489 1.7714 8.47064C1.63286 8.26244 1.6318 7.98983 1.76945 7.78119L1.77336 7.77533C1.79571 7.74226 1.82142 7.71168 1.84953 7.68353L7.68351 1.84955Z" fill="var(--fill-0, #334155)"/>
</g>
</svg>
