<svg preserveAspectRatio="none" width="100%" height="100%" overflow="visible" style="display: block;" viewBox="0 0 14.75 14.5928" fill="none" xmlns="http://www.w3.org/2000/svg">
<path id="Pixel override hack" d="M6 1.40723C6.02873 1.40723 6.05707 1.40897 6.08496 1.41211C6.37897 1.42412 6.66789 1.49517 6.93164 1.62695L9.73926 3.03125L9.80176 3.05762C9.86518 3.08054 9.93222 3.09277 10 3.09277C10.0905 3.09277 10.1798 3.07167 10.2607 3.03125L12.7002 1.81152V1.81055C12.9162 1.70269 13.1563 1.65216 13.3975 1.66309C13.6388 1.67408 13.8737 1.74684 14.0791 1.87402C14.2844 2.00117 14.4539 2.17863 14.5713 2.38965C14.6885 2.60044 14.7501 2.83793 14.75 3.0791V11.5889L14.7363 11.7852C14.7091 11.9788 14.6417 12.1655 14.5381 12.333C14.4343 12.5008 14.2971 12.6449 14.1357 12.7559L13.9668 12.8555L10.9316 14.373C10.6667 14.5054 10.3764 14.5764 10.0811 14.5879C10.0544 14.5908 10.0274 14.5928 10 14.5928L9.92285 14.5889C9.92121 14.5887 9.91961 14.5881 9.91797 14.5879C9.62293 14.5762 9.333 14.5053 9.06836 14.373L6.26074 12.9697C6.17979 12.9293 6.09049 12.9082 6 12.9082C5.93228 12.9082 5.86513 12.9195 5.80176 12.9424L5.73926 12.9697L3.2998 14.1895C3.08358 14.2975 2.84302 14.348 2.60156 14.3369C2.36018 14.3258 2.1253 14.2533 1.91992 14.126C1.71464 13.9986 1.54497 13.8206 1.42773 13.6094C1.31062 13.3982 1.24945 13.1604 1.25 12.9189V4.41113C1.25023 4.14828 1.32363 3.89054 1.46191 3.66699L1.57617 3.50781C1.70126 3.35701 1.85667 3.23275 2.0332 3.14453L5.06836 1.62695L5.29102 1.53125C5.51772 1.44922 5.75769 1.40723 6 1.40723ZM2.75 4.46289V12.7871L5.06836 11.6279C5.12749 11.5984 5.18858 11.5735 5.25 11.5498V3.21289L2.75 4.46289ZM6.75 11.5498C6.81142 11.5735 6.87251 11.5984 6.93164 11.6279L9.25 12.7861V4.45117C9.18859 4.42747 9.12748 4.40259 9.06836 4.37305L6.75 3.21289V11.5498ZM10.9316 4.37305C10.8725 4.40259 10.8114 4.42747 10.75 4.45117V12.7861L13.25 11.5361V3.21289L10.9316 4.37305ZM0.00976562 0.00976562H0V0H0.00976562V0.00976562Z" fill="var(--fill-0, #020617)"/>
</svg>
