<svg preserveAspectRatio="none" width="100%" height="100%" overflow="visible" style="display: block;" viewBox="0 0 14.583 13.25" fill="none" xmlns="http://www.w3.org/2000/svg">
<g id="Left icon wrapper">
<path id="Left icon" d="M10.292 0C11.4299 8.63407e-05 12.5214 0.452273 13.3262 1.25684C14.131 2.06168 14.583 3.15377 14.583 4.29199C14.5829 6.09952 13.3904 7.42788 12.3994 8.39941L7.7334 13.0674C7.61631 13.1842 7.4574 13.2499 7.29199 13.25C7.12643 13.2499 6.96673 13.1844 6.84961 13.0674L2.18262 8.40039V8.39941C1.18093 7.43008 0.000141357 6.10328 0 4.29199C0 3.15385 0.452094 2.06166 1.25684 1.25684C2.0616 0.452069 3.15389 8.6179e-05 4.29199 0C4.94104 3.1038e-05 5.53072 0.0930483 6.10645 0.34375C6.52025 0.524005 6.90599 0.778376 7.29102 1.10742C7.67633 0.778001 8.06343 0.524151 8.47754 0.34375C9.05325 0.0930691 9.64297 3.11001e-05 10.292 0ZM10.292 1.25C9.76829 1.25003 9.35712 1.32359 8.97656 1.48926C8.59186 1.65686 8.19767 1.93612 7.7334 2.40039C7.6163 2.51732 7.45748 2.58292 7.29199 2.58301C7.12635 2.58292 6.96674 2.51752 6.84961 2.40039C6.38535 1.93616 5.99213 1.65684 5.60742 1.48926C5.22682 1.32354 4.81576 1.25003 4.29199 1.25C3.48541 1.25009 2.71097 1.57028 2.14062 2.14062C1.5703 2.71103 1.25 3.48537 1.25 4.29199C1.25012 5.3856 1.87237 6.29112 2.69531 7.14551L3.05957 7.50879L7.29102 11.7402L11.5166 7.5166L11.5205 7.51172C12.5151 6.53712 13.3329 5.53473 13.333 4.29199C13.333 3.48529 13.0128 2.71105 12.4424 2.14062C11.8721 1.57048 11.0984 1.25009 10.292 1.25Z" fill="var(--fill-0, #F8FAFC)"/>
</g>
</svg>
