<svg preserveAspectRatio="none" width="100%" height="100%" overflow="visible" style="display: block;" viewBox="0 0 15.416 14.083" fill="none" xmlns="http://www.w3.org/2000/svg">
<path id="Pixel override hack" d="M5.41504 1.25391C5.71522 1.27252 6.00873 1.35593 6.27441 1.49902C6.57557 1.66132 6.83222 1.89578 7.02148 2.18066L7.56152 2.98047L7.56641 2.9873C7.62001 3.06871 7.69329 3.13578 7.7793 3.18164C7.86515 3.22732 7.96135 3.25083 8.05859 3.25H13.333C13.8854 3.25 14.415 3.46985 14.8057 3.86035C15.1963 4.25098 15.4159 4.78059 15.416 5.33301V12C15.416 12.5525 15.1964 13.082 14.8057 13.4727C14.415 13.8633 13.8855 14.083 13.333 14.083H2.66602C2.11372 14.0828 1.58391 13.8632 1.19336 13.4727C0.851711 13.1309 0.640132 12.6828 0.592773 12.2061L0.583008 12V3.33301C0.583094 2.78067 0.802837 2.25096 1.19336 1.86035C1.58391 1.4698 2.11372 1.25017 2.66602 1.25H5.28613L5.41504 1.25391ZM2.66602 2.75C2.51154 2.75017 2.36315 2.81166 2.25391 2.9209C2.14469 3.0302 2.08309 3.17849 2.08301 3.33301V12L2.09473 12.1143C2.11711 12.2262 2.17204 12.3301 2.25391 12.4121C2.36315 12.5214 2.51154 12.5828 2.66602 12.583H13.333C13.4876 12.583 13.6357 12.5214 13.7451 12.4121C13.8545 12.3027 13.916 12.1547 13.916 12V5.33301C13.9159 5.17842 13.8544 5.03022 13.7451 4.9209C13.6358 4.81171 13.4876 4.75 13.333 4.75H8.06641V4.74902C7.7207 4.75115 7.37946 4.66835 7.07422 4.50586C6.76682 4.3421 6.50504 4.10338 6.31348 3.8125V3.81152L5.77832 3.01953L5.77344 3.0127C5.72033 2.93211 5.64746 2.86512 5.5625 2.81934C5.49901 2.78524 5.42951 2.76377 5.3584 2.75488L5.28613 2.75H2.66602ZM0.00976562 0.00976562H0V0H0.00976562V0.00976562Z" fill="var(--fill-0, #020617)"/>
</svg>
