<svg preserveAspectRatio="none" width="100%" height="100%" overflow="visible" style="display: block;" viewBox="0 0 12.75 12.75" fill="none" xmlns="http://www.w3.org/2000/svg">
<path id="Pixel override hack" d="M8 3.25C10.6234 3.25 12.75 5.37665 12.75 8C12.75 10.6234 10.6234 12.75 8 12.75C5.37665 12.75 3.25 10.6234 3.25 8C3.25 5.37665 5.37665 3.25 8 3.25ZM8 4.75C6.20507 4.75 4.75 6.20507 4.75 8C4.75 9.79493 6.20507 11.25 8 11.25C9.79493 11.25 11.25 9.79493 11.25 8C11.25 6.20507 9.79493 4.75 8 4.75ZM0.00976562 0.00976562H0V0H0.00976562V0.00976562Z" fill="var(--fill-0, #020617)"/>
</svg>
