<svg preserveAspectRatio="none" width="100%" height="100%" overflow="visible" style="display: block;" viewBox="0 0 304 200" fill="none" xmlns="http://www.w3.org/2000/svg">
<g id="Subtract">
<mask id="path-1-inside-1_1412_7141" fill="white">
<path d="M87.7298 0C90.9275 0 93.818 1.90422 95.0802 4.84229L99.9413 16.1577C101.203 19.0958 104.094 21 107.292 21H296C300.418 21 304 24.5817 304 29V192C304 196.418 300.418 200 296 200H8.00001C3.58173 200 0 196.418 0 192V8C0 3.58173 3.58172 0 8 0H87.7298Z"/>
</mask>
<path d="M87.7298 0C90.9275 0 93.818 1.90422 95.0802 4.84229L99.9413 16.1577C101.203 19.0958 104.094 21 107.292 21H296C300.418 21 304 24.5817 304 29V192C304 196.418 300.418 200 296 200H8.00001C3.58173 200 0 196.418 0 192V8C0 3.58173 3.58172 0 8 0H87.7298Z" fill="var(--fill-0, white)"/>
<path d="M99.9413 16.1577L99.0225 16.5524L99.9413 16.1577ZM95.0802 4.84229L95.999 4.44758L95.0802 4.84229ZM95.0802 4.84229L94.1614 5.23701L99.0225 16.5524L99.9413 16.1577L100.86 15.763L95.999 4.44758L95.0802 4.84229ZM107.292 21V22H296V21V20H107.292V21ZM304 29H303V192H304H305V29H304ZM296 200V199H8.00001V200V201H296V200ZM0 192H1V8H0H-1V192H0ZM8 0V1H87.7298V0V-1H8V0ZM0 8H1C1 4.13401 4.13401 1 8 1V0V-1C3.02944 -1 -1 3.02944 -1 8H0ZM8.00001 200V199C4.13401 199 1 195.866 1 192H0H-1C-1 196.971 3.02944 201 8.00001 201V200ZM304 192H303C303 195.866 299.866 199 296 199V200V201C300.971 201 305 196.971 305 192H304ZM296 21V22C299.866 22 303 25.134 303 29H304H305C305 24.0294 300.971 20 296 20V21ZM99.9413 16.1577L99.0225 16.5524C100.442 19.8577 103.694 22 107.292 22V21V20C104.494 20 101.964 18.3338 100.86 15.763L99.9413 16.1577ZM95.0802 4.84229L95.999 4.44758C94.5791 1.14225 91.3272 -1 87.7298 -1V0V1C90.5278 1 93.057 2.66619 94.1614 5.23701L95.0802 4.84229Z" fill="var(--stroke-0, #E2E8F0)" mask="url(#path-1-inside-1_1412_7141)"/>
</g>
</svg>
