<svg preserveAspectRatio="none" width="100%" height="100%" overflow="visible" style="display: block;" viewBox="0 0 13.25 14.583" fill="none" xmlns="http://www.w3.org/2000/svg">
<g id="Left icon wrapper">
<path id="Left icon" d="M8.625 0C8.79057 8.56786e-05 8.95026 0.0655854 9.06738 0.182617L12.4004 3.5166C12.5174 3.63366 12.5838 3.79248 12.584 3.95801V12.625C12.584 13.1442 12.3768 13.6425 12.0098 14.0098C11.6426 14.3768 11.1442 14.5829 10.625 14.583H1.29199C0.946814 14.583 0.666992 14.3032 0.666992 13.958C0.667344 13.6131 0.947031 13.333 1.29199 13.333H10.625C10.8127 13.3329 10.9932 13.2586 11.126 13.126C11.2586 12.9932 11.334 12.8127 11.334 12.625V5.25H9.29102C8.77187 5.24983 8.27336 5.04386 7.90625 4.67676C7.53927 4.30961 7.33309 3.8111 7.33301 3.29199V1.25H2.625C2.43741 1.25009 2.25675 1.32447 2.12402 1.45703C1.99134 1.58972 1.91716 1.77038 1.91699 1.95801V4.625C1.91699 4.97007 1.63702 5.24982 1.29199 5.25C0.946814 5.25 0.666992 4.97018 0.666992 4.625V1.95801C0.667164 1.43886 0.873129 0.940348 1.24023 0.573242C1.60739 0.206264 2.10589 8.61742e-05 2.625 0H8.625ZM2.625 6.66699C2.97018 6.66699 3.25 6.94681 3.25 7.29199V8.66699H4.625C4.97018 8.66699 5.25 8.94681 5.25 9.29199C5.25 9.63717 4.97018 9.91699 4.625 9.91699H3.25V11.292C3.25 11.6372 2.97018 11.917 2.625 11.917C2.27982 11.917 2 11.6372 2 11.292V9.91699H0.625C0.279822 9.91699 0 9.63717 0 9.29199C0 8.94681 0.279822 8.66699 0.625 8.66699H2V7.29199C2 6.94681 2.27982 6.66699 2.625 6.66699ZM8.58301 3.29199C8.58309 3.47958 8.65748 3.66024 8.79004 3.79297C8.92272 3.92565 9.10339 3.99983 9.29102 4H11.1162L8.58301 1.4668V3.29199Z" fill="var(--fill-0, #F8FAFC)"/>
</g>
</svg>
